<?xml version="1.0" encoding="UTF-8"?>
<svg version="1.1" xmlns="http://www.w3.org/2000/svg" width="180" height="180">
<path d="M0 0 C2.875 1.3125 2.875 1.3125 5 3 C5 3.99 5 4.98 5 6 C5.66 6 6.32 6 7 6 C7.0825 5.38125 7.165 4.7625 7.25 4.125 C8 2 8 2 9.76953125 0.859375 C13.56745764 -0.60392414 17.11573443 0.01841664 21 1 C23.5625 2.875 23.5625 2.875 26 5 C27.33867012 5.52089382 28.69507004 5.99760985 30.0625 6.4375 C33.93573569 7.78471241 35.88070043 9.37952991 38 13 C38 14.32 38 15.64 38 17 C38.763125 17.268125 39.52625 17.53625 40.3125 17.8125 C43.05529608 19.02443315 44.18157603 19.67122815 46 22 C46.9140625 25.06640625 46.9140625 25.06640625 47.625 28.5625 C48.44118289 32.90954461 48.44118289 32.90954461 50 37 C49.94921875 39.09375 49.94921875 39.09375 49.6875 41.5 C49.60886719 42.2940625 49.53023438 43.088125 49.44921875 43.90625 C49 46 49 46 47 48 C46.5065866 50.03408189 46.5065866 50.03408189 46.1875 52.3125 C45.2507213 56.85734042 43.80972456 59.16485614 40 62 C38.6696875 62.2475 38.6696875 62.2475 37.3125 62.5 C36.1678125 62.7475 36.1678125 62.7475 35 63 C34.30341637 64.65438613 33.63903117 66.32254318 33 68 C30.22356264 70.15945128 28.36941192 70.94828233 24.875 71.4375 C21.27822235 72.14121737 21.10029684 73.1435963 19 76 C16.68895182 77.05047644 14.35416349 78.05007438 12 79 C10.65368175 79.98244845 9.31558703 80.97676564 8 82 C7.34 82 6.68 82 6 82 C5.67 82.66 5.34 83.32 5 84 C-6.97674419 75.72093023 -6.97674419 75.72093023 -10 73 C-10 72.34 -10 71.68 -10 71 C-10.86625 71.0825 -11.7325 71.165 -12.625 71.25 C-16.84092949 70.93770893 -18.78371843 69.69270085 -22 67 C-22.165 66.29875 -22.33 65.5975 -22.5 64.875 C-22.665 64.25625 -22.83 63.6375 -23 63 C-24.98636298 62.29373761 -26.98848259 61.63106429 -29 61 C-33.1875916 58.09195027 -33.63485814 54.92030917 -34.49609375 50.171875 C-34.92603109 47.80809797 -34.92603109 47.80809797 -36.625 45.3125 C-38.40039684 42.32660531 -38.36415219 40.42303059 -38 37 C-37.52240234 36.071875 -37.52240234 36.071875 -37.03515625 35.125 C-35.87362728 32.74057827 -35.52005813 30.67875231 -35.125 28.0625 C-34.31213569 23.75685937 -33.33062006 21.03674182 -30 18 C-27.75 17.1875 -27.75 17.1875 -26 17 C-25.9175 16.0925 -25.835 15.185 -25.75 14.25 C-24.86465725 10.41351476 -24.13727235 9.33284355 -21 7 C-19.05234067 6.16589372 -17.09045628 5.46741203 -15.08203125 4.79296875 C-12.98704562 3.99506616 -11.26624052 3.00762982 -9.375 1.8125 C-5.75132359 -0.13354845 -4.02948751 -0.61318288 0 0 Z M-10 7 C-10.99 8.485 -10.99 8.485 -12 10 C-13.875 10.44140625 -13.875 10.44140625 -16 10.5625 C-19.40578304 10.71839542 -19.40578304 10.71839542 -22 13 C-22.50010524 15.95769177 -22.50010524 15.95769177 -22 19 C-20.2890789 20.97098426 -20.2890789 20.97098426 -18 22 C-17.01 22 -16.02 22 -15 22 C-15 22.99 -15 23.98 -15 25 C-13.35 25 -11.7 25 -10 25 C-12.51070754 21.33112448 -12.51070754 21.33112448 -16.25 19.1875 C-16.8275 19.125625 -17.405 19.06375 -18 19 C-19.125 15.25 -19.125 15.25 -18 13 C-16.35 13 -14.7 13 -13 13 C-12.34 14.98 -11.68 16.96 -11 19 C-9.68 18.34 -8.36 17.68 -7 17 C-7.33 13.7 -7.66 10.4 -8 7 C-5.03 7.495 -5.03 7.495 -2 8 C-1.60460479 12.48114572 -2.84746606 15.10888095 -5 19 C-5.67142429 20.33094389 -6.3390866 21.66380552 -7 23 C-5.69013727 24.16962686 -4.3770374 25.33562944 -3.0625 26.5 C-2.33160156 27.1496875 -1.60070312 27.799375 -0.84765625 28.46875 C0.7283755 30.1063501 0.7283755 30.1063501 2 30 C2.086985 26.22931168 2.14038579 22.45888068 2.1875 18.6875 C2.21263672 17.61564453 2.23777344 16.54378906 2.26367188 15.43945312 C2.27333984 14.41142578 2.28300781 13.38339844 2.29296875 12.32421875 C2.3086792 11.37635498 2.32438965 10.42849121 2.34057617 9.4519043 C2.18366801 6.97132346 2.18366801 6.97132346 0.73168945 5.16723633 C-3.31852113 2.43721281 -6.51309564 4.52246269 -10 7 Z M11.296875 5.05078125 C9.30774232 8.04047163 9.71516962 10.6511628 9.8125 14.1875 C9.83957031 15.45980469 9.86664063 16.73210938 9.89453125 18.04296875 C9.92933594 19.01878906 9.96414062 19.99460937 10 21 C12.60719326 19.32319284 12.60719326 19.32319284 15 17 C15.38989216 14.62633951 15.38989216 14.62633951 14.8125 12.25 C14.60560547 11.05117188 14.60560547 11.05117188 14.39453125 9.828125 C14.26433594 9.22484375 14.13414063 8.6215625 14 8 C17.75 6.875 17.75 6.875 20 8 C18.97295769 15.36046992 16.8482857 19.51378197 12 25 C15.11369948 25.32210684 16.50334709 25.40279724 18.984375 23.390625 C19.56703125 22.68421875 20.1496875 21.9778125 20.75 21.25 C21.34296875 20.55390625 21.9359375 19.8578125 22.546875 19.140625 C23.97721928 17.0335587 24.57406858 15.48833621 25 13 C26.65 13 28.3 13 30 13 C30.33 14.98 30.66 16.96 31 19 C29.9275 19.2475 28.855 19.495 27.75 19.75 C23.88464221 21.0384526 22.22231554 21.62208038 20 25 C19.67775284 27.75759042 19.81376574 30.20648605 20 33 C21.14926266 32.04578192 22.29430541 31.08647955 23.4375 30.125 C24.07558594 29.59132813 24.71367188 29.05765625 25.37109375 28.5078125 C27.10805004 27.0777243 27.10805004 27.0777243 28 25 C27.34 25 26.68 25 26 25 C26.33 24.01 26.66 23.02 27 22 C30 20.875 30 20.875 33 20 C33.33 19.67 33.66 19.34 34 19 C33.82432642 15.51944126 33.82432642 15.51944126 33 12 C30.19151783 9.68959634 30.19151783 9.68959634 27.0625 10.1875 C26.051875 10.125625 25.04125 10.06375 24 10 C23.360625 9.195625 22.72125 8.39125 22.0625 7.5625 C20.14116094 4.66774945 20.14116094 4.66774945 16.4375 4 C13.15405107 3.69917449 13.15405107 3.69917449 11.296875 5.05078125 Z M-16 15 C-15 17 -15 17 -15 17 Z M27 15 C28 17 28 17 28 17 Z M-29.1875 22.625 C-31.23468995 24.9089578 -31.23468995 24.9089578 -31.4375 28 C-30.94242643 31.39479021 -30.5881216 32.74582958 -28 35 C-24.39534252 35.81314911 -24.39534252 35.81314911 -21 36 C-21 34.35 -21 32.7 -21 31 C-21.78375 31.185625 -22.5675 31.37125 -23.375 31.5625 C-26 32 -26 32 -28 31 C-27.67 29.35 -27.34 27.7 -27 26 C-25.02 26.66 -23.04 27.32 -21 28 C-20.67 27.01 -20.34 26.02 -20 25 C-21.32 24.34 -22.64 23.68 -24 23 C-24 22.34 -24 21.68 -24 21 C-27.05279952 20.701838 -27.05279952 20.701838 -29.1875 22.625 Z M36 21 C36 21.66 36 22.32 36 23 C35.01 23.33 34.02 23.66 33 24 C33 24.33 33 24.66 33 25 C34.98 25 36.96 25 39 25 C36.93992341 28.60513403 34.6486859 31.80331012 32 35 C37.19503151 35.42630704 37.19503151 35.42630704 42 33.9375 C43.60856522 30.82090489 43.42213381 28.43737531 43 25 C41.33211068 22.49722089 41.33211068 22.49722089 39 21 C38.01 21 37.02 21 36 21 Z M11 25 C9.66098208 26.11126659 9.66098208 26.11126659 9.90234375 28.94140625 C9.91394531 30.13636719 9.92554688 31.33132812 9.9375 32.5625 C9.94652344 33.76003906 9.95554688 34.95757812 9.96484375 36.19140625 C9.97644531 37.11824219 9.98804688 38.04507813 10 39 C10.66 38.67 11.32 38.34 12 38 C12 33.71 12 29.42 12 25 C11.67 25 11.34 25 11 25 Z M-17 29 C-17 35.93 -17 42.86 -17 50 C-16.34 50 -15.68 50 -15 50 C-15 47.36 -15 44.72 -15 42 C-14.34 42.33 -13.68 42.66 -13 43 C-10.65639946 43.05279673 -10.65639946 43.05279673 -8.0625 42.8125 C-7.18722656 42.75707031 -6.31195313 42.70164062 -5.41015625 42.64453125 C-2.87180366 42.18465683 -2.87180366 42.18465683 -1.17578125 40.140625 C0.26253355 37.95896268 0.26253355 37.95896268 -0.125 34.9375 C-1.05081323 31.82941272 -1.40840991 30.84725499 -4 29 C-8.36230202 28.59256208 -12.60965258 28.86959364 -17 29 Z M15 29 C15 35.93 15 42.86 15 50 C15.66 50 16.32 50 17 50 C17.99 46.535 17.99 46.535 19 43 C21.37948772 43.17625835 22.70225849 43.69719773 24.37890625 45.40234375 C25.62115486 46.90649092 26.81376056 48.45129851 28 50 C29.32 49.67 30.64 49.34 32 49 C29.36 45.7 26.72 42.4 24 39 C25.49739583 37.27473958 26.99479167 35.54947917 28.4921875 33.82421875 C30.1640447 31.86501788 30.1640447 31.86501788 32 29 C27.92452282 29.52106557 26.13349573 31.58466672 23.375 34.5 C19.16918429 38.91540785 19.16918429 38.91540785 17 40 C17 36.37 17 32.74 17 29 C16.34 29 15.68 29 15 29 Z M-33 36 C-34.19988045 41.28199593 -34.19988045 41.28199593 -32 46 C-31.34 46 -30.68 46 -30 46 C-30.103125 47.216875 -30.20625 48.43375 -30.3125 49.6875 C-30.3125 53.26295245 -30.05281641 53.92756607 -27.8125 57 C-24.80512535 59.13857753 -23.58848221 59.51264032 -20 59 C-19.896875 59.763125 -19.79375 60.52625 -19.6875 61.3125 C-18.92725789 64.28435553 -18.39473352 65.16118676 -16 67 C-13.71669899 67.36146457 -13.71669899 67.36146457 -11.3125 67.1875 C-10.50425781 67.16042969 -9.69601563 67.13335937 -8.86328125 67.10546875 C-7.94095703 67.05326172 -7.94095703 67.05326172 -7 67 C-6.87625 67.61875 -6.7525 68.2375 -6.625 68.875 C-6.12802644 71.19120832 -6.12802644 71.19120832 -4 73 C-2.02 73 -0.04 73 2 73 C2 67.06 2 61.12 2 55 C-1.65859288 55 -2.94596639 56.27753524 -5.63671875 58.62109375 C-7.24901975 60.25187385 -8.20431166 61.85164149 -9 64 C-10.65 64 -12.3 64 -14 64 C-14 62.02 -14 60.04 -14 58 C-12.9275 57.9175 -11.855 57.835 -10.75 57.75 C-6.72149234 56.94429847 -5.43794344 56.21808534 -3 53 C-3 52.34 -3 51.68 -3 51 C-5.64 51 -8.28 51 -11 51 C-11.33 51.66 -11.66 52.32 -12 53 C-14.31 53 -16.62 53 -19 53 C-19.33 53.99 -19.66 54.98 -20 56 C-21.65 56 -23.3 56 -25 56 C-25.33 54.68 -25.66 53.36 -26 52 C-24.35 51.34 -22.7 50.68 -21 50 C-21 48.35 -21 46.7 -21 45 C-21.78375 45.350625 -22.5675 45.70125 -23.375 46.0625 C-24.24125 46.371875 -25.1075 46.68125 -26 47 C-26.66 46.67 -27.32 46.34 -28 46 C-28.625 43.4375 -28.625 43.4375 -29 41 C-25.95613276 40.91773332 -23.92824652 41.02391783 -21 42 C-21 41.01 -21 40.02 -21 39 C-21.61488281 38.86722656 -22.22976562 38.73445313 -22.86328125 38.59765625 C-24.07564453 38.33275391 -24.07564453 38.33275391 -25.3125 38.0625 C-26.11300781 37.88847656 -26.91351563 37.71445313 -27.73828125 37.53515625 C-30 37 -30 37 -33 36 Z M42.328125 36.9609375 C39.42135221 38.25825556 36.91925415 38.41830951 33.75 38.625 C32.67234375 38.69976562 31.5946875 38.77453125 30.484375 38.8515625 C29.66453125 38.90054688 28.8446875 38.94953125 28 39 C28.99 40.485 28.99 40.485 30 42 C34.455 41.505 34.455 41.505 39 41 C39.33 42.65 39.66 44.3 40 46 C38.35 46.33 36.7 46.66 35 47 C35.515625 47.7425 36.03125 48.485 36.5625 49.25 C38 52 38 52 37.875 54.25 C37.58625 54.8275 37.2975 55.405 37 56 C36.01 56.33 35.02 56.66 34 57 C33.608125 56.54625 33.21625 56.0925 32.8125 55.625 C31.0723783 53.85205367 31.0723783 53.85205367 28.625 53.1875 C24.96824732 51.53325474 23.46158056 49.14535293 21 46 C20.67 46 20.34 46 20 46 C19.58228196 49.33200185 19.58228196 49.33200185 20 53 C22.59555787 55.66570809 24.476812 56.825604 28 58 C28 59.65 28 61.3 28 63 C26.35 63 24.7 63 23 63 C22.5875 62.071875 22.175 61.14375 21.75 60.1875 C20.06558214 57.11945319 18.91545917 55.80959535 16 54 C11.44131414 57.46421894 11.44131414 57.46421894 9.6015625 62.625 C9.62272069 65.10756078 9.73661319 67.53196808 10 70 C10.99 69.505 10.99 69.505 12 69 C11.979375 67.88625 11.95875 66.7725 11.9375 65.625 C12 62 12 62 13 60 C14.65 60 16.3 60 18 60 C18 61.65 18 63.3 18 65 C17.34 65.33 16.68 65.66 16 66 C14.53589034 68.28401108 13.21303722 70.57392556 12 73 C14.45224694 72.89386164 14.45224694 72.89386164 17 72 C18.37466625 69.52363988 18.37466625 69.52363988 19 67 C20.216875 67.103125 21.43375 67.20625 22.6875 67.3125 C26.33936516 67.32547288 26.90881361 67.07028951 30 64.6875 C32.29850538 62.15722061 32.29850538 62.15722061 32 59 C33.093125 58.9175 34.18625 58.835 35.3125 58.75 C38.93247143 58.3190246 38.93247143 58.3190246 40.9375 56.375 C42.24599383 53.90100739 42.24599383 53.90100739 41.9375 50.5 C42 47 42 47 44.0625 45 C45.0215625 44.01 45.0215625 44.01 46 43 C45.85387105 39.30567489 45.85387105 39.30567489 45 36 C43.82310587 35.91694685 43.82310587 35.91694685 42.328125 36.9609375 Z M1 42 C2 45 2 45 2 45 Z M11 44 C11 47 11 47 11 47 Z M-11 46 C-11 46.66 -11 47.32 -11 48 C-7.7 48 -4.4 48 -1 48 C-1.33 47.34 -1.66 46.68 -2 46 C-4.97 46 -7.94 46 -11 46 Z M11 50 C10.67 51.65 10.34 53.3 10 55 C10.66 54.67 11.32 54.34 12 54 C11.67 52.68 11.34 51.36 11 50 Z M-12 60 C-11.67 60.66 -11.34 61.32 -11 62 C-10.67 61.34 -10.34 60.68 -10 60 C-10.66 60 -11.32 60 -12 60 Z " fill="#9419D4" transform="translate(84,47)"/>
<path d="M0 0 C2.64697266 0.82983398 2.64697266 0.82983398 5 3 C5.74838148 6.70944762 5.60318101 10.38945028 5.5234375 14.16015625 C5.51873444 15.26097031 5.51403137 16.36178436 5.50918579 17.49595642 C5.48779975 21.01876854 5.43115126 24.54008835 5.375 28.0625 C5.35849904 30.44074109 5.34414939 32.81899816 5.33203125 35.19726562 C5.29802212 39.54194123 5.26327175 43.88646246 5.19287109 48.23071289 C5.18001068 49.10546768 5.16715027 49.98022247 5.15390015 50.88148499 C5 53 5 53 4 55 C3.2575 55.12375 2.515 55.2475 1.75 55.375 C-1.74358224 56.16899596 -3.41085121 57.5471222 -6 60 C-6.495 60.9075 -6.99 61.815 -7.5 62.75 C-7.995 63.4925 -8.49 64.235 -9 65 C-11.625 65.375 -11.625 65.375 -14 65 C-15 64 -15 64 -15.125 61 C-15 58 -15 58 -14 57 C-12.906875 56.9175 -11.81375 56.835 -10.6875 56.75 C-6.85463807 56.33693772 -6.85463807 56.33693772 -4.5625 53.4375 C-4.046875 52.633125 -3.53125 51.82875 -3 51 C-5.64 51 -8.28 51 -11 51 C-11.33 51.99 -11.66 52.98 -12 54 C-12.94875 53.938125 -13.8975 53.87625 -14.875 53.8125 C-16.421875 53.9053125 -16.421875 53.9053125 -18 54 C-18.66 54.99 -19.32 55.98 -20 57 C-22.5 57.3125 -22.5 57.3125 -25 57 C-25.66 56.34 -26.32 55.68 -27 55 C-26.625 52.875 -26.625 52.875 -26 51 C-23.525 50.505 -23.525 50.505 -21 50 C-21.33 48.68 -21.66 47.36 -22 46 C-23.32 46.66 -24.64 47.32 -26 48 C-26.99 47.34 -27.98 46.68 -29 46 C-29.1875 43.375 -29.1875 43.375 -29 41 C-26.6875 40.375 -26.6875 40.375 -24 40 C-23.01 40.66 -22.02 41.32 -21 42 C-21 41.01 -21 40.02 -21 39 C-22.5778125 39.0928125 -22.5778125 39.0928125 -24.1875 39.1875 C-28.15816493 38.9922214 -29.84196969 38.29674932 -33 36 C-33.2503577 39.37464024 -33.2503577 39.37464024 -33 43 C-32.52175781 43.46664062 -32.04351562 43.93328125 -31.55078125 44.4140625 C-29.00273424 47.0198738 -29.11810938 50.22466157 -28.625 53.72265625 C-28.16844924 56.36117245 -28.16844924 56.36117245 -25 58 C-24.175 58.0825 -23.35 58.165 -22.5 58.25 C-20 59 -20 59 -18.25 62 C-17.8375 62.99 -17.425 63.98 -17 65 C-15.44552446 66.55447554 -13.77809715 66.15244867 -11.625 66.25 C-9.14453125 66.484375 -9.14453125 66.484375 -7 67 C-5.3125 69.5 -5.3125 69.5 -4 72 C-0.9042893 72.89207179 -0.9042893 72.89207179 2 73 C2 73.33 2 73.66 2 74 C0.02 74 -1.96 74 -4 74 C-3.67 74.99 -3.34 75.98 -3 77 C-7.67692308 75.52307692 -7.67692308 75.52307692 -9.3125 72.875 C-9.539375 72.25625 -9.76625 71.6375 -10 71 C-10.86625 71.0825 -11.7325 71.165 -12.625 71.25 C-16.84092949 70.93770893 -18.78371843 69.69270085 -22 67 C-22.165 66.29875 -22.33 65.5975 -22.5 64.875 C-22.665 64.25625 -22.83 63.6375 -23 63 C-24.98636298 62.29373761 -26.98848259 61.63106429 -29 61 C-33.1875916 58.09195027 -33.63485814 54.92030917 -34.49609375 50.171875 C-34.92603109 47.80809797 -34.92603109 47.80809797 -36.625 45.3125 C-38.40039684 42.32660531 -38.36415219 40.42303059 -38 37 C-37.52240234 36.071875 -37.52240234 36.071875 -37.03515625 35.125 C-35.87362728 32.74057827 -35.52005813 30.67875231 -35.125 28.0625 C-34.31213569 23.75685937 -33.33062006 21.03674182 -30 18 C-27.75 17.1875 -27.75 17.1875 -26 17 C-25.9175 16.0925 -25.835 15.185 -25.75 14.25 C-24.86465725 10.41351476 -24.13727235 9.33284355 -21 7 C-19.05234067 6.16589372 -17.09045628 5.46741203 -15.08203125 4.79296875 C-12.98704562 3.99506616 -11.26624052 3.00762982 -9.375 1.8125 C-5.75132359 -0.13354845 -4.02948751 -0.61318288 0 0 Z M-10 7 C-10.99 8.485 -10.99 8.485 -12 10 C-13.875 10.44140625 -13.875 10.44140625 -16 10.5625 C-19.40578304 10.71839542 -19.40578304 10.71839542 -22 13 C-22.50010524 15.95769177 -22.50010524 15.95769177 -22 19 C-20.2890789 20.97098426 -20.2890789 20.97098426 -18 22 C-17.01 22 -16.02 22 -15 22 C-15 22.99 -15 23.98 -15 25 C-13.35 25 -11.7 25 -10 25 C-12.51070754 21.33112448 -12.51070754 21.33112448 -16.25 19.1875 C-16.8275 19.125625 -17.405 19.06375 -18 19 C-19.125 15.25 -19.125 15.25 -18 13 C-16.35 13 -14.7 13 -13 13 C-12.34 14.98 -11.68 16.96 -11 19 C-9.68 18.34 -8.36 17.68 -7 17 C-7.33 13.7 -7.66 10.4 -8 7 C-5.03 7.495 -5.03 7.495 -2 8 C-1.60460479 12.48114572 -2.84746606 15.10888095 -5 19 C-5.67142429 20.33094389 -6.3390866 21.66380552 -7 23 C-5.69013727 24.16962686 -4.3770374 25.33562944 -3.0625 26.5 C-2.33160156 27.1496875 -1.60070312 27.799375 -0.84765625 28.46875 C0.7283755 30.1063501 0.7283755 30.1063501 2 30 C2.086985 26.22931168 2.14038579 22.45888068 2.1875 18.6875 C2.21263672 17.61564453 2.23777344 16.54378906 2.26367188 15.43945312 C2.27333984 14.41142578 2.28300781 13.38339844 2.29296875 12.32421875 C2.3086792 11.37635498 2.32438965 10.42849121 2.34057617 9.4519043 C2.18366801 6.97132346 2.18366801 6.97132346 0.73168945 5.16723633 C-3.31852113 2.43721281 -6.51309564 4.52246269 -10 7 Z M-16 15 C-15 17 -15 17 -15 17 Z M-29.1875 22.625 C-31.23468995 24.9089578 -31.23468995 24.9089578 -31.4375 28 C-30.94242643 31.39479021 -30.5881216 32.74582958 -28 35 C-24.39534252 35.81314911 -24.39534252 35.81314911 -21 36 C-21 34.35 -21 32.7 -21 31 C-21.78375 31.185625 -22.5675 31.37125 -23.375 31.5625 C-26 32 -26 32 -28 31 C-27.67 29.35 -27.34 27.7 -27 26 C-25.02 26.66 -23.04 27.32 -21 28 C-20.67 27.01 -20.34 26.02 -20 25 C-21.32 24.34 -22.64 23.68 -24 23 C-24 22.34 -24 21.68 -24 21 C-27.05279952 20.701838 -27.05279952 20.701838 -29.1875 22.625 Z M-17 29 C-17 35.93 -17 42.86 -17 50 C-16.34 50 -15.68 50 -15 50 C-15 47.36 -15 44.72 -15 42 C-14.34 42.33 -13.68 42.66 -13 43 C-10.65639946 43.05279673 -10.65639946 43.05279673 -8.0625 42.8125 C-7.18722656 42.75707031 -6.31195313 42.70164062 -5.41015625 42.64453125 C-2.87180366 42.18465683 -2.87180366 42.18465683 -1.17578125 40.140625 C0.26253355 37.95896268 0.26253355 37.95896268 -0.125 34.9375 C-1.05081323 31.82941272 -1.40840991 30.84725499 -4 29 C-8.36230202 28.59256208 -12.60965258 28.86959364 -17 29 Z M1 42 C2 45 2 45 2 45 Z M-11 46 C-11 46.66 -11 47.32 -11 48 C-7.7 48 -4.4 48 -1 48 C-1.33 47.34 -1.66 46.68 -2 46 C-4.97 46 -7.94 46 -11 46 Z M-12 60 C-11.67 60.66 -11.34 61.32 -11 62 C-10.67 61.34 -10.34 60.68 -10 60 C-10.66 60 -11.32 60 -12 60 Z " fill="#0386DF" transform="translate(84,47)"/>
<path d="M0 0 C2.97 0.495 2.97 0.495 6 1 C5.67 1.66 5.34 2.32 5 3 C4.34 3 3.68 3 3 3 C3 7.95 3 12.9 3 18 C6.24349822 15.44003678 6.24349822 15.44003678 6.07421875 12.73828125 C5.94660156 11.93777344 5.81898437 11.13726562 5.6875 10.3125 C5.56761719 9.50425781 5.44773437 8.69601563 5.32421875 7.86328125 C5.21722656 7.24839844 5.11023438 6.63351563 5 6 C7.3125 4.875 7.3125 4.875 10 4 C10.99 4.66 11.98 5.32 13 6 C12.12441961 12.27499278 11.28095696 15.9676085 6.375 20.0625 C3.84294535 22.43695788 3.0690629 23.57246773 2.5078125 27.046875 C2.38093904 32.70027554 2.38093904 32.70027554 4 38 C3.67 38.66 3.34 39.32 3 40 C3.66 40 4.32 40 5 40 C5 44 5 48 5 52 C4.34 51.01 3.68 50.02 3 49 C0.91412366 60.75768179 0.91412366 60.75768179 3 72 C7.32371893 69.97366931 7.32371893 69.97366931 11 67 C10.79375 67.61875 10.5875 68.2375 10.375 68.875 C10.25125 69.57625 10.1275 70.2775 10 71 C10.66 71.66 11.32 72.32 12 73 C11.46890625 73.25394531 10.9378125 73.50789063 10.390625 73.76953125 C6.63882365 75.59750746 3.31676395 77.44864311 0 80 C-0.66 80 -1.32 80 -2 80 C-2.495 80.99 -2.495 80.99 -3 82 C-4.32176485 81.09674384 -5.63215066 80.17682097 -6.9375 79.25 C-8.03384766 78.48429687 -8.03384766 78.48429687 -9.15234375 77.703125 C-11.20805399 75.80822085 -11.62669176 74.72574271 -12 72 C-10.02 72 -8.04 72 -6 72 C-6 65.73 -6 59.46 -6 53 C-5.34 53 -4.68 53 -4 53 C-3.67 36.83 -3.34 20.66 -3 4 C-2.34 4 -1.68 4 -1 4 C-0.67 2.68 -0.34 1.36 0 0 Z M3 42 C3 45 3 45 3 45 Z " fill="#5F37ED" transform="translate(92,49)"/>
<path d="M0 0 C1.65 0 3.3 0 5 0 C5.66 1.65 6.32 3.3 7 5 C4.61710494 7.75914165 2.34161418 8.66335433 -1 10 C-2.91666667 11.08333333 -2.91666667 11.08333333 -4 13 C-4.2503577 16.62535976 -4.2503577 16.62535976 -4 20 C-3.21625 19.01 -2.4325 18.02 -1.625 17 C0.5030887 14.82075533 1.57842421 14.06398918 4.625 13.6015625 C7.10756078 13.62272069 9.53196808 13.73661319 12 14 C12 14.66 12 15.32 12 16 C9.36 16 6.72 16 4 16 C3.7525 16.57234375 3.505 17.1446875 3.25 17.734375 C1.80683801 20.35010611 0.11783778 22.14773456 -2 24.25 C-2.70125 24.95640625 -3.4025 25.6628125 -4.125 26.390625 C-6 28 -6 28 -8 28 C-8 24.37 -8 20.74 -8 17 C-8.66 17 -9.32 17 -10 17 C-10 23.93 -10 30.86 -10 38 C-9.34 38 -8.68 38 -8 38 C-8.04125 37.05125 -8.0825 36.1025 -8.125 35.125 C-8 32 -8 32 -6 30 C-3.875 30.375 -3.875 30.375 -2 31 C-2 31.99 -2 32.98 -2 34 C-2.99 34 -3.98 34 -5 34 C-4.77815146 38.89702137 -4.77815146 38.89702137 -2.1875 42.8125 C-0.14281205 43.92247346 1.88955838 45.02015211 4 46 C4.042721 47.66611905 4.04063832 49.33382885 4 51 C3 52 3 52 0.75 52.5625 C-2 52 -2 52 -3.3359375 50.21484375 C-4.19012453 48.74719512 -5.00876256 47.25823075 -5.7890625 45.75 C-6.18867187 45.1725 -6.58828125 44.595 -7 44 C-10.10055631 43.67460431 -10.10055631 43.67460431 -12.1875 45.875 C-14.21631554 47.78811334 -14.21631554 47.78811334 -14 50 C-13.34 49.01 -12.68 48.02 -12 47 C-9.4375 46.75 -9.4375 46.75 -7 47 C-6 48 -6 48 -5.9375 50.5625 C-5.958125 51.366875 -5.97875 52.17125 -6 53 C-7.485 53.495 -7.485 53.495 -9 54 C-9.12375 54.598125 -9.2475 55.19625 -9.375 55.8125 C-10.28601298 59.00104544 -12.37615941 60.11621701 -15 62 C-16.40248912 59.19502177 -16.16979056 56.81498635 -16.1875 53.6875 C-16.20876953 51.99173828 -16.20876953 51.99173828 -16.23046875 50.26171875 C-16.00480137 47.06795157 -15.36342654 44.8723571 -14 42 C-13.34 42 -12.68 42 -12 42 C-12 40.35 -12 38.7 -12 37 C-12.66 36.67 -13.32 36.34 -14 36 C-13.34 34.02 -12.68 32.04 -12 30 C-12.66 30 -13.32 30 -14 30 C-13.67 24.39 -13.34 18.78 -13 13 C-11.35 13 -9.7 13 -8 13 C-7.7525 12.4225 -7.505 11.845 -7.25 11.25 C-6 9 -6 9 -4 7.0625 C-1.82536995 4.81991276 -0.97926774 2.93780321 0 0 Z M2 3 C3 5 3 5 3 5 Z " fill="#941CDF" transform="translate(109,59)"/>
<path d="M0 0 C1.32 0.33 2.64 0.66 4 1 C4.02529271 8.08413941 4.04284261 15.16826723 4.05493164 22.25244141 C4.05996974 24.66390417 4.06680034 27.07536386 4.07543945 29.48681641 C4.08752787 32.94694779 4.09323344 36.4070389 4.09765625 39.8671875 C4.10281754 40.95055389 4.10797882 42.03392029 4.11329651 43.15011597 C4.11337204 44.1510025 4.11344757 45.15188904 4.11352539 46.18310547 C4.115746 47.06690887 4.11796661 47.95071228 4.12025452 48.86129761 C4 51 4 51 3 53 C2.2575 53.12375 1.515 53.2475 0.75 53.375 C-2.74358224 54.16899596 -4.41085121 55.5471222 -7 58 C-7.495 58.9075 -7.99 59.815 -8.5 60.75 C-8.995 61.4925 -9.49 62.235 -10 63 C-12.625 63.375 -12.625 63.375 -15 63 C-16 62 -16 62 -16.125 59 C-16 56 -16 56 -15 55 C-13.906875 54.9175 -12.81375 54.835 -11.6875 54.75 C-7.85463807 54.33693772 -7.85463807 54.33693772 -5.5625 51.4375 C-5.046875 50.633125 -4.53125 49.82875 -4 49 C-6.64 49 -9.28 49 -12 49 C-12.33 49.99 -12.66 50.98 -13 52 C-13.94875 51.938125 -14.8975 51.87625 -15.875 51.8125 C-17.421875 51.9053125 -17.421875 51.9053125 -19 52 C-19.66 52.99 -20.32 53.98 -21 55 C-23.5 55.3125 -23.5 55.3125 -26 55 C-26.66 54.34 -27.32 53.68 -28 53 C-27.625 50.875 -27.625 50.875 -27 49 C-26.01 49 -25.02 49 -24 49 C-23.34 49.66 -22.68 50.32 -22 51 C-21.505 50.505 -21.505 50.505 -21 50 C-18.66702567 49.95907063 -16.33294775 49.95758277 -14 50 C-13.67 47.69 -13.34 45.38 -13 43 C-9.37 43 -5.74 43 -2 43 C-2 42.34 -2 41.68 -2 41 C-3.98 41 -5.96 41 -8 41 C-7.38125 40.731875 -6.7625 40.46375 -6.125 40.1875 C-3.7004767 39.04443152 -3.7004767 39.04443152 -2 36 C-1.34 36 -0.68 36 0 36 C-0.33 33.69 -0.66 31.38 -1 29 C-0.34 29 0.32 29 1 29 C0.505 16.13 0.505 16.13 0 3 C-0.66 2.67 -1.32 2.34 -2 2 C-1.34 2 -0.68 2 0 2 C0 1.34 0 0.68 0 0 Z M0 40 C1 43 1 43 1 43 Z M-12 44 C-12 44.66 -12 45.32 -12 46 C-8.7 46 -5.4 46 -2 46 C-2.33 45.34 -2.66 44.68 -3 44 C-5.97 44 -8.94 44 -12 44 Z M-13 58 C-12.67 58.66 -12.34 59.32 -12 60 C-11.67 59.34 -11.34 58.68 -11 58 C-11.66 58 -12.32 58 -13 58 Z " fill="#135BD2" transform="translate(85,49)"/>
<path d="M0 0 C-0.47202486 4.24822374 -2.96655518 6.19989709 -6 9 C-0.67829506 9.29562367 -0.67829506 9.29562367 4 7 C4 7.99 4 8.98 4 10 C4.99 10 5.98 10 7 10 C6.67 10.99 6.34 11.98 6 13 C5.01 13 4.02 13 3 13 C2.01 13.495 2.01 13.495 1 14 C-0.87056791 14.2275015 -2.74685958 14.40962811 -4.625 14.5625 C-5.62789062 14.64628906 -6.63078125 14.73007813 -7.6640625 14.81640625 C-8.43492188 14.87699219 -9.20578125 14.93757813 -10 15 C-7.09781232 15.66599617 -5.26212097 16.05486253 -2.3125 15.4375 C-1.1678125 15.2209375 -1.1678125 15.2209375 0 15 C0.66 15.66 1.32 16.32 2 17 C1.625 19.625 1.625 19.625 1 22 C-0.32 22.33 -1.64 22.66 -3 23 C-2.2265625 23.86625 -2.2265625 23.86625 -1.4375 24.75 C0 27 0 27 -0.0625 29.125 C-1.27013551 31.54027102 -2.52871798 32.0433747 -5 33 C-5.99 32.34 -6.98 31.68 -8 31 C-8 30.34 -8 29.68 -8 29 C-8.721875 28.95875 -9.44375 28.9175 -10.1875 28.875 C-14.23274817 27.61647835 -15.49481257 25.36410883 -18 22 C-17.34 21.67 -16.68 21.34 -16 21 C-15.67 20.34 -15.34 19.68 -15 19 C-14.401875 19.825 -13.80375 20.65 -13.1875 21.5 C-12.465625 22.325 -11.74375 23.15 -11 24 C-10.01 24 -9.02 24 -8 24 C-10.64 20.7 -13.28 17.4 -16 14 C-10.25 7.25 -10.25 7.25 -8 5 C-8.66 4.34 -9.32 3.68 -10 3 C-4.25 1.875 -4.25 1.875 -2 3 C-2 2.34 -2 1.68 -2 1 C-4.97 1 -7.94 1 -11 1 C-6.46780033 -1.26609984 -4.82227075 -0.92735976 0 0 Z " fill="#9719D9" transform="translate(123,72)"/>
<path d="M0 0 C0.33 0 0.66 0 1 0 C1 1.98 1 3.96 1 6 C1.66 6 2.32 6 3 6 C3.33 4.68 3.66 3.36 4 2 C4.37125 3.134375 4.7425 4.26875 5.125 5.4375 C5.86637873 7.3814131 5.86637873 7.3814131 7 9 C10.08369887 10.05749557 10.08369887 10.05749557 13 10 C13 10.33 13 10.66 13 11 C10.69 11 8.38 11 6 11 C5.67 11.66 5.34 12.32 5 13 C4.01 12.34 3.02 11.68 2 11 C1.7496423 14.37464024 1.7496423 14.37464024 2 18 C2.47824219 18.46664062 2.95648438 18.93328125 3.44921875 19.4140625 C5.99726576 22.0198738 5.88189062 25.22466157 6.375 28.72265625 C6.83155076 31.36117245 6.83155076 31.36117245 10 33 C10.825 33.0825 11.65 33.165 12.5 33.25 C15 34 15 34 16.75 37 C17.1625 37.99 17.575 38.98 18 40 C19.55447554 41.55447554 21.22190285 41.15244867 23.375 41.25 C25.85546875 41.484375 25.85546875 41.484375 28 42 C29.6875 44.5 29.6875 44.5 31 47 C34.0957107 47.89207179 34.0957107 47.89207179 37 48 C37 48.33 37 48.66 37 49 C35.02 49 33.04 49 31 49 C31.33 49.99 31.66 50.98 32 52 C27.32307692 50.52307692 27.32307692 50.52307692 25.6875 47.875 C25.460625 47.25625 25.23375 46.6375 25 46 C24.13375 46.0825 23.2675 46.165 22.375 46.25 C18.15907051 45.93770893 16.21628157 44.69270085 13 42 C12.835 41.29875 12.67 40.5975 12.5 39.875 C12.2525 38.946875 12.2525 38.946875 12 38 C10.01363702 37.29373761 8.01151741 36.63106429 6 36 C1.8124084 33.09195027 1.36514186 29.92030917 0.50390625 25.171875 C0.07396891 22.80809797 0.07396891 22.80809797 -1.625 20.3125 C-3.40039684 17.32660531 -3.36415219 15.42303059 -3 12 C-2.33333333 10.66666667 -1.66666667 9.33333333 -1 8 C-0.53203936 5.33622408 -0.26945941 2.69459414 0 0 Z " fill="#028FEA" transform="translate(49,72)"/>
<path d="M0 0 C0.66 0 1.32 0 2 0 C2.33 25.08 2.66 50.16 3 76 C2.34 76 1.68 76 1 76 C0.505 76.99 0.505 76.99 0 78 C-1.32176485 77.09674384 -2.63215066 76.17682097 -3.9375 75.25 C-5.03384766 74.48429687 -5.03384766 74.48429687 -6.15234375 73.703125 C-8.20805399 71.80822085 -8.62669176 70.72574271 -9 68 C-7.02 68 -5.04 68 -3 68 C-3 61.73 -3 55.46 -3 49 C-2.34 49 -1.68 49 -1 49 C-0.67 32.83 -0.34 16.66 0 0 Z " fill="#3735C0" transform="translate(89,53)"/>
<path d="M0 0 C2.475 0.99 2.475 0.99 5 2 C5.33 1.67 5.66 1.34 6 1 C8.67058851 0.85884839 11.32432238 0.95752893 14 1 C14 1.66 14 2.32 14 3 C12.35 3 10.7 3 9 3 C9 10.59 9 18.18 9 26 C10.32 26 11.64 26 13 26 C13 23.69 13 21.38 13 19 C13.99 19.33 14.98 19.66 16 20 C15.34 22.31 14.68 24.62 14 27 C11.69 27 9.38 27 7 27 C6.67 27.99 6.34 28.98 6 30 C5.01 28.68 4.02 27.36 3 26 C3.99 25.67 4.98 25.34 6 25 C5.67 23.68 5.34 22.36 5 21 C3.02 21.99 3.02 21.99 1 23 C0.01 22.34 -0.98 21.68 -2 21 C-2.1875 18.375 -2.1875 18.375 -2 16 C0.3125 15.375 0.3125 15.375 3 15 C3.99 15.66 4.98 16.32 6 17 C6 16.01 6 15.02 6 14 C3.69 14 1.38 14 -1 14 C-1.33 13.01 -1.66 12.02 -2 11 C0.64 11 3.28 11 6 11 C6 9.35 6 7.7 6 6 C4.8553125 6.556875 4.8553125 6.556875 3.6875 7.125 C2.800625 7.41375 1.91375 7.7025 1 8 C0.01 7.34 -0.98 6.68 -2 6 C-1.125 1.125 -1.125 1.125 0 0 Z " fill="#0190F3" transform="translate(57,72)"/>
<path d="M0 0 C2.25 1.375 2.25 1.375 4 3 C5.31836295 3.69580267 6.64791086 4.37224433 8 5 C8.042721 6.66611905 8.04063832 8.33382885 8 10 C7 11 7 11 4.75 11.5625 C2 11 2 11 0.6640625 9.21484375 C-0.19012453 7.74719512 -1.00876256 6.25823075 -1.7890625 4.75 C-2.18867187 4.1725 -2.58828125 3.595 -3 3 C-6.10055631 2.67460431 -6.10055631 2.67460431 -8.1875 4.875 C-10.21631554 6.78811334 -10.21631554 6.78811334 -10 9 C-9.34 8.01 -8.68 7.02 -8 6 C-5.4375 5.75 -5.4375 5.75 -3 6 C-2 7 -2 7 -1.9375 9.5625 C-1.958125 10.366875 -1.97875 11.17125 -2 12 C-2.99 12.33 -3.98 12.66 -5 13 C-5.12375 13.598125 -5.2475 14.19625 -5.375 14.8125 C-6.28601298 18.00104544 -8.37615941 19.11621701 -11 21 C-12.40248912 18.19502177 -12.16979056 15.81498635 -12.1875 12.6875 C-12.20876953 10.99173828 -12.20876953 10.99173828 -12.23046875 9.26171875 C-12.00265899 6.03763153 -11.48285228 3.85644177 -10 1 C-6.81881788 -0.59059106 -3.4635566 -0.40017188 0 0 Z " fill="#6228D2" transform="translate(105,100)"/>
<path d="M0 0 C1.32 0.33 2.64 0.66 4 1 C4.02529271 8.08413941 4.04284261 15.16826723 4.05493164 22.25244141 C4.05996974 24.66390417 4.06680034 27.07536386 4.07543945 29.48681641 C4.08752787 32.94694779 4.09323344 36.4070389 4.09765625 39.8671875 C4.10281754 40.95055389 4.10797882 42.03392029 4.11329651 43.15011597 C4.11337204 44.1510025 4.11344757 45.15188904 4.11352539 46.18310547 C4.115746 47.06690887 4.11796661 47.95071228 4.12025452 48.86129761 C4 51 4 51 3 53 C1.68 52.67 0.36 52.34 -1 52 C-0.34 51.34 0.32 50.68 1 50 C1.24315656 47.33050591 1.24315656 47.33050591 1.125 44.375 C1.10695313 43.37210938 1.08890625 42.36921875 1.0703125 41.3359375 C1.04710938 40.56507812 1.02390625 39.79421875 1 39 C0.01 39.495 0.01 39.495 -1 40 C-1 36.37 -1 32.74 -1 29 C-0.34 29 0.32 29 1 29 C0.67 20.42 0.34 11.84 0 3 C-0.66 2.67 -1.32 2.34 -2 2 C-1.34 2 -0.68 2 0 2 C0 1.34 0 0.68 0 0 Z " fill="#3850EF" transform="translate(85,49)"/>
<path d="M0 0 C-0.47202486 4.24822374 -2.96655518 6.19989709 -6 9 C-0.67829506 9.29562367 -0.67829506 9.29562367 4 7 C4 7.99 4 8.98 4 10 C4.99 10 5.98 10 7 10 C6.67 10.99 6.34 11.98 6 13 C5.01 13 4.02 13 3 13 C2.01 13.495 2.01 13.495 1 14 C-0.87056791 14.2275015 -2.74685958 14.40962811 -4.625 14.5625 C-5.62789062 14.64628906 -6.63078125 14.73007813 -7.6640625 14.81640625 C-8.43492188 14.87699219 -9.20578125 14.93757813 -10 15 C-9.67 15.66 -9.34 16.32 -9 17 C-9.66 17 -10.32 17 -11 17 C-11.33 17.66 -11.66 18.32 -12 19 C-13.32 17.02 -14.64 15.04 -16 13 C-13.36 10.36 -10.72 7.72 -8 5 C-8.66 4.34 -9.32 3.68 -10 3 C-4.25 1.875 -4.25 1.875 -2 3 C-2 2.34 -2 1.68 -2 1 C-4.97 1 -7.94 1 -11 1 C-6.46780033 -1.26609984 -4.82227075 -0.92735976 0 0 Z " fill="#9218D0" transform="translate(123,72)"/>
<path d="M0 0 C1.98 0.66 3.96 1.32 6 2 C6.33 5.96 6.66 9.92 7 14 C6.34 14 5.68 14 5 14 C5 10.37 5 6.74 5 3 C4.34 3 3.68 3 3 3 C3 9.93 3 16.86 3 24 C3.66 24 4.32 24 5 24 C4.95875 23.05125 4.9175 22.1025 4.875 21.125 C5 18 5 18 7 16 C9.125 16.375 9.125 16.375 11 17 C11 17.99 11 18.98 11 20 C10.01 20 9.02 20 8 20 C8 22.31 8 24.62 8 27 C5.69 27 3.38 27 1 27 C1 25.68 1 24.36 1 23 C0.34 22.67 -0.32 22.34 -1 22 C-0.34 20.02 0.32 18.04 1 16 C0.34 16 -0.32 16 -1 16 C-0.67 10.72 -0.34 5.44 0 0 Z " fill="#8120D4" transform="translate(96,73)"/>
<path d="M0 0 C5.26183562 0.63752616 7.84700631 1.66920502 11.9140625 5.21484375 C13.933593 6.05864758 15.95875996 6.75219062 18.046875 7.40625 C20.27064836 8.36926482 21.42575919 9.3019494 22.9140625 11.21484375 C23.58363746 13.88803233 23.68768958 16.45309412 23.9140625 19.21484375 C22.9240625 19.54484375 21.9340625 19.87484375 20.9140625 20.21484375 C19.9240625 17.57484375 18.9340625 14.93484375 17.9140625 12.21484375 C16.9034375 12.17359375 15.8928125 12.13234375 14.8515625 12.08984375 C11.50786471 11.64089034 9.95272346 10.60056308 7.5390625 8.27734375 C3.75257932 4.68061599 -0.00533202 3.8830413 -5.0859375 3.21484375 C-3.43718566 1.19328496 -2.64932623 0.27287068 0 0 Z " fill="#901DD5" transform="translate(98.0859375,46.78515625)"/>
<path d="M0 0 C2.8125 0.125 2.8125 0.125 6 1 C7.8125 4 7.8125 4 9 7 C10.55447554 8.55447554 12.22190285 8.15244867 14.375 8.25 C16.85546875 8.484375 16.85546875 8.484375 19 9 C20.6875 11.5 20.6875 11.5 22 14 C25.0957107 14.89207179 25.0957107 14.89207179 28 15 C28 15.33 28 15.66 28 16 C26.02 16 24.04 16 22 16 C22.33 16.99 22.66 17.98 23 19 C18.32307692 17.52307692 18.32307692 17.52307692 16.6875 14.875 C16.460625 14.25625 16.23375 13.6375 16 13 C14.700625 13.12375 14.700625 13.12375 13.375 13.25 C9.15907051 12.93770893 7.21628157 11.69270085 4 9 C3.125 6.75 3.125 6.75 3 5 C3.66 5 4.32 5 5 5 C5 4.01 5 3.02 5 2 C3.35 2 1.7 2 0 2 C0 1.34 0 0.68 0 0 Z " fill="#1660E2" transform="translate(58,105)"/>
<path d="M0 0 C2.475 0.99 2.475 0.99 5 2 C5.33 1.67 5.66 1.34 6 1 C8.67058851 0.85884839 11.32432238 0.95752893 14 1 C14 1.66 14 2.32 14 3 C12.35 3 10.7 3 9 3 C9.020625 4.051875 9.04125 5.10375 9.0625 6.1875 C9.01103198 9.32704904 8.73482813 11.96883396 8 15 C7.67 14.34 7.34 13.68 7 13 C4.03 13 1.06 13 -2 13 C-2 12.34 -2 11.68 -2 11 C0.64 11 3.28 11 6 11 C6 9.35 6 7.7 6 6 C4.8553125 6.556875 4.8553125 6.556875 3.6875 7.125 C2.800625 7.41375 1.91375 7.7025 1 8 C0.01 7.34 -0.98 6.68 -2 6 C-1.125 1.125 -1.125 1.125 0 0 Z " fill="#00A9F8" transform="translate(57,72)"/>
<path d="M0 0 C0.061875 0.61875 0.12375 1.2375 0.1875 1.875 C0.80875315 4.2501999 0.80875315 4.2501999 3.375 5.0625 C4.674375 5.5265625 4.674375 5.5265625 6 6 C8.43984498 8.00415838 8.97123955 8.91371864 10 12 C10.12781786 14.67394964 10.04391871 17.32095857 10 20 C9.67 20 9.34 20 9 20 C8.67 17.69 8.34 15.38 8 13 C7.67 14.98 7.34 16.96 7 19 C6.67 19 6.34 19 6 19 C5.896875 17.906875 5.79375 16.81375 5.6875 15.6875 C4.95315172 11.55944323 4.95315172 11.55944323 2 9 C1.01 8.67 0.02 8.34 -1 8 C-1 8.66 -1 9.32 -1 10 C-4.4019487 12.09350689 -7.05272412 12.17942163 -11 12 C-10.875 10.125 -10.875 10.125 -10 8 C-7.1875 6.8125 -7.1875 6.8125 -4 6 C-3.21625 5.79375 -2.4325 5.5875 -1.625 5.375 C-1.08875 5.25125 -0.5525 5.1275 0 5 C0 3.35 0 1.7 0 0 Z " fill="#9217C8" transform="translate(121,60)"/>
<path d="M0 0 C1.258125 -0.020625 2.51625 -0.04125 3.8125 -0.0625 C4.52019531 -0.07410156 5.22789063 -0.08570312 5.95703125 -0.09765625 C8 0 8 0 11 1 C11.625 3.875 11.625 3.875 12 7 C10 9 10 9 7.6171875 9.1953125 C6.71226563 9.17210938 5.80734375 9.14890625 4.875 9.125 C3.50988281 9.09792969 3.50988281 9.09792969 2.1171875 9.0703125 C1.41851562 9.04710938 0.71984375 9.02390625 0 9 C0 6.03 0 3.06 0 0 Z " fill="#0287E7" transform="translate(69,78)"/>
<path d="M0 0 C2.6875 0.875 2.6875 0.875 5 2 C3.82409701 10.42730479 1.13671269 14.30631202 -5 20 C-5.625 18.13671875 -5.625 18.13671875 -6 16 C-5.34 15.278125 -4.68 14.55625 -4 13.8125 C-1.37657148 10.12330364 -1.93714531 8.10529928 -2.640625 3.79296875 C-2.75921875 3.20128906 -2.8778125 2.60960937 -3 2 C-2.01 1.34 -1.02 0.68 0 0 Z " fill="#7627DC" transform="translate(100,53)"/>
<path d="M0 0 C0.66 0.66 1.32 1.32 2 2 C1.67 2.66 1.34 3.32 1 4 C-0.92578125 4.45703125 -0.92578125 4.45703125 -3.3125 4.8125 C-7.92151935 5.70667883 -9.15722992 7.27499093 -12 11 C-15.25 11.3125 -15.25 11.3125 -18 11 C-18 10.34 -18 9.68 -18 9 C-19.32 8.67 -20.64 8.34 -22 8 C-21.43152344 7.75765625 -20.86304688 7.5153125 -20.27734375 7.265625 C-16.47149669 5.61367135 -12.82996635 3.95827484 -9.3125 1.75 C-5.79620889 -0.10766323 -3.90797046 -0.5452982 0 0 Z " fill="#0488DE" transform="translate(84,47)"/>
<path d="M0 0 C1.65 0 3.3 0 5 0 C5.66 1.65 6.32 3.3 7 5 C5.26675321 7.00691734 4.06807731 7.97381642 1.5625 8.9375 C-1.12996583 9.82652842 -1.12996583 9.82652842 -2.8125 12.125 C-6.12840007 14.96720006 -8.72665713 14.28488952 -13 14 C-13 13.67 -13 13.34 -13 13 C-11.35 13 -9.7 13 -8 13 C-7.7525 12.4225 -7.505 11.845 -7.25 11.25 C-6 9 -6 9 -4 7.0625 C-1.82536995 4.81991276 -0.97926774 2.93780321 0 0 Z M2 3 C3 5 3 5 3 5 Z " fill="#921BD6" transform="translate(109,59)"/>
<path d="M0 0 C0.33 0 0.66 0 1 0 C1 16.83 1 33.66 1 51 C-0.32 50.67 -1.64 50.34 -3 50 C-2.34 49.34 -1.68 48.68 -1 48 C-0.75684344 45.33050591 -0.75684344 45.33050591 -0.875 42.375 C-0.89304687 41.37210938 -0.91109375 40.36921875 -0.9296875 39.3359375 C-0.95289062 38.56507812 -0.97609375 37.79421875 -1 37 C-1.99 37.495 -1.99 37.495 -3 38 C-3 34.37 -3 30.74 -3 27 C-2.34 27 -1.68 27 -1 27 C-0.67 18.09 -0.34 9.18 0 0 Z " fill="#3357F9" transform="translate(87,51)"/>
<path d="M0 0 C0.66 0.33 1.32 0.66 2 1 C2.375 4.25 2.375 4.25 2 8 C-1.80446027 11.44213072 -5.02177661 12.30536418 -10 13 C-10.33 13.66 -10.66 14.32 -11 15 C-12.32 14.67 -13.64 14.34 -15 14 C-14.34 12.02 -13.68 10.04 -13 8 C-12.31292969 7.92523438 -11.62585938 7.85046875 -10.91796875 7.7734375 C-8.15481839 7.37023101 -5.63987517 6.91821745 -3 6 C-0.77674321 3.06337328 -0.77674321 3.06337328 0 0 Z " fill="#8523DF" transform="translate(116,106)"/>
<path d="M0 0 C3.3 0 6.6 0 10 0 C10 0.33 10 0.66 10 1 C7.03 1 4.06 1 1 1 C1 2.32 1 3.64 1 5 C3.64 5 6.28 5 9 5 C9 5.33 9 5.66 9 6 C6.36 6 3.72 6 1 6 C0.67 6.99 0.34 7.98 0 9 C-1.423125 8.9071875 -1.423125 8.9071875 -2.875 8.8125 C-4.421875 8.9053125 -4.421875 8.9053125 -6 9 C-6.99 10.485 -6.99 10.485 -8 12 C-10.5 12.3125 -10.5 12.3125 -13 12 C-13.66 11.34 -14.32 10.68 -15 10 C-14.625 7.875 -14.625 7.875 -14 6 C-13.01 6 -12.02 6 -11 6 C-10.34 6.66 -9.68 7.32 -9 8 C-8.67 7.67 -8.34 7.34 -8 7 C-5.66702567 6.95907063 -3.33294775 6.95758277 -1 7 C-0.67 4.69 -0.34 2.38 0 0 Z " fill="#0960BF" transform="translate(72,92)"/>
<path d="M0 0 C2.00720923 0.28674418 4.0085944 0.61866701 6 1 C5.67 1.66 5.34 2.32 5 3 C4.34 3 3.68 3 3 3 C3 8.61 3 14.22 3 20 C2.34 20.33 1.68 20.66 1 21 C0.67 27.27 0.34 33.54 0 40 C-0.33 40 -0.66 40 -1 40 C-1.02464775 34.46411467 -1.04283496 28.928261 -1.05493164 23.39233398 C-1.05997244 21.5075627 -1.06680498 19.62279535 -1.07543945 17.73803711 C-1.08751617 15.03498364 -1.09323068 12.33198169 -1.09765625 9.62890625 C-1.10281754 8.78099014 -1.10797882 7.93307404 -1.11329651 7.0594635 C-1.11349195 5.03928932 -1.06206211 3.01922066 -1 1 C-0.67 0.67 -0.34 0.34 0 0 Z " fill="#553EE8" transform="translate(92,49)"/>
<path d="M0 0 C2 2 2 2 2.125 5.625 C2.08375 6.73875 2.0425 7.8525 2 9 C2.66 9 3.32 9 4 9 C5.82695589 12.08960109 6.22295727 14.06770369 5.8125 17.625 C5.73644531 18.40101562 5.66039062 19.17703125 5.58203125 19.9765625 C5 22 5 22 2 24 C2 19.71 2 15.42 2 11 C1.01 11 0.02 11 -1 11 C-0.67 7.37 -0.34 3.74 0 0 Z " fill="#A41BE0" transform="translate(128,71)"/>
<path d="M0 0 C0.33 0 0.66 0 1 0 C1 1.98 1 3.96 1 6 C1.66 6 2.32 6 3 6 C3 4.35 3 2.7 3 1 C3.33 1 3.66 1 4 1 C4.28875 2.0725 4.5775 3.145 4.875 4.25 C5.72820109 7.09400364 6.5636503 9.43508983 8 12 C9.65 12 11.3 12 13 12 C13.33 13.32 13.66 14.64 14 16 C4.3015873 13.26455026 4.3015873 13.26455026 1 9 C-0.4783226 6.04335481 -0.06032783 3.25770263 0 0 Z " fill="#0C6CE4" transform="translate(50,95)"/>
<path d="M0 0 C1.31352023 0.30818356 2.62579572 0.62167665 3.9375 0.9375 C5.03384766 1.19853516 5.03384766 1.19853516 6.15234375 1.46484375 C8 2 8 2 9 3 C9.125 5.5 9.125 5.5 9 8 C8 9 8 9 5.4375 9.0625 C4.633125 9.041875 3.82875 9.02125 3 9 C0 3.375 0 3.375 0 0 Z " fill="#8E1AD4" transform="translate(104,102)"/>
<path d="M0 0 C2.625 -0.1875 2.625 -0.1875 5 0 C7.125 5.625 7.125 5.625 6 9 C3.69 8.34 1.38 7.68 -1 7 C-1.625 5.1875 -1.625 5.1875 -2 3 C-1.34 2.01 -0.68 1.02 0 0 Z M2 3 C3 5 3 5 3 5 Z " fill="#0196E3" transform="translate(66,59)"/>
<path d="M0 0 C0.33 0 0.66 0 1 0 C1 9.57 1 19.14 1 29 C-3.19174654 27.95206337 -4.21592961 27.08236365 -7 24 C-5.02 23.67 -3.04 23.34 -1 23 C-0.67 15.41 -0.34 7.82 0 0 Z " fill="#4541EE" transform="translate(88,100)"/>
<path d="M0 0 C0.66 0.33 1.32 0.66 2 1 C2 9.25 2 17.5 2 26 C2.66 26.33 3.32 26.66 4 27 C3.01 27 2.02 27 1 27 C1 25.68 1 24.36 1 23 C0.34 22.67 -0.32 22.34 -1 22 C-0.34 20.02 0.32 18.04 1 16 C0.34 16 -0.32 16 -1 16 C-0.67 10.72 -0.34 5.44 0 0 Z " fill="#812CF3" transform="translate(96,73)"/>
<path d="M0 0 C1.175625 0.5259375 1.175625 0.5259375 2.375 1.0625 C3.674375 1.5265625 3.674375 1.5265625 5 2 C5.66 1.67 6.32 1.34 7 1 C7 1.99 7 2.98 7 4 C5.68 4.33 4.36 4.66 3 5 C4.32 5 5.64 5 7 5 C7 6.98 7 8.96 7 11 C6.67 11 6.34 11 6 11 C6 9.35 6 7.7 6 6 C4.8553125 6.556875 4.8553125 6.556875 3.6875 7.125 C2.800625 7.41375 1.91375 7.7025 1 8 C0.01 7.34 -0.98 6.68 -2 6 C-1.125 1.125 -1.125 1.125 0 0 Z " fill="#019EEA" transform="translate(57,72)"/>
<path d="M0 0 C6.30788932 0.75524476 6.30788932 0.75524476 9.44140625 3.27734375 C9.91578125 3.91671875 10.39015625 4.55609375 10.87890625 5.21484375 C9.88890625 5.21484375 8.89890625 5.21484375 7.87890625 5.21484375 C7.54890625 5.87484375 7.21890625 6.53484375 6.87890625 7.21484375 C5.82703125 6.74046875 4.77515625 6.26609375 3.69140625 5.77734375 C0.77714774 4.52160634 -1.96856289 3.69249994 -5.12109375 3.21484375 C-3.45936335 1.17086226 -2.67527163 0.27097595 0 0 Z " fill="#7822CD" transform="translate(98.12109375,46.78515625)"/>
<path d="M0 0 C2.8125 -0.3125 2.8125 -0.3125 6 0 C7.01866229 1.65532623 8.01810813 3.32260138 9 5 C12.0957107 5.89207179 12.0957107 5.89207179 15 6 C15 6.33 15 6.66 15 7 C13.02 7 11.04 7 9 7 C9.33 7.99 9.66 8.98 10 10 C5.32307692 8.52307692 5.32307692 8.52307692 3.6875 5.875 C3.3471875 4.946875 3.3471875 4.946875 3 4 C1.02 4 -0.96 4 -3 4 C-3 3.67 -3 3.34 -3 3 C-0.69 3 1.62 3 4 3 C4.33 2.34 4.66 1.68 5 1 C3.35 1 1.7 1 0 1 C0 0.67 0 0.34 0 0 Z " fill="#244BD3" transform="translate(71,114)"/>
<path d="M0 0 C2.31 0 4.62 0 7 0 C7.625 2.375 7.625 2.375 8 5 C6 7 6 7 3.4375 7.1875 C1 7 1 7 0 6 C-0.04080783 4.00041636 -0.04254356 1.99954746 0 0 Z M3 2 C3.33 2.66 3.66 3.32 4 4 C4.33 3.34 4.66 2.68 5 2 C4.34 2 3.68 2 3 2 Z " fill="#0E6BE5" transform="translate(69,105)"/>
<path d="M0 0 C-0.99 0.33 -1.98 0.66 -3 1 C-3 1.66 -3 2.32 -3 3 C-3.639375 3.598125 -4.27875 4.19625 -4.9375 4.8125 C-7.25174456 7.26700181 -7.63391473 8.70523261 -8 12 C-8.99 11.67 -9.98 11.34 -11 11 C-11.2253459 7.69492676 -11.34500438 5.60786486 -9.6875 2.6875 C-6.76898518 -0.23101482 -3.91393763 -0.1057821 0 0 Z " fill="#00A9F4" transform="translate(69,55)"/>
<path d="M0 0 C0 0.99 0 1.98 0 3 C0.99 3 1.98 3 3 3 C3 5.31 3 7.62 3 10 C2.34 9.67 1.68 9.34 1 9 C1 7.68 1 6.36 1 5 C-0.98 5.99 -0.98 5.99 -3 7 C-3.99 6.34 -4.98 5.68 -6 5 C-6.1875 2.375 -6.1875 2.375 -6 0 C-3.50907189 -1.24546405 -2.58919267 -0.7767578 0 0 Z " fill="#0186E2" transform="translate(61,88)"/>
<path d="M0 0 C0.66 0.99 1.32 1.98 2 3 C2.66 2.67 3.32 2.34 4 2 C4 5.96 4 9.92 4 14 C1.45235564 12.72617782 0.4600074 11.43334567 -1 9 C-0.6875 6.75 -0.6875 6.75 0 5 C-1.98 5 -3.96 5 -6 5 C-5.38125 4.731875 -4.7625 4.46375 -4.125 4.1875 C-1.7004767 3.04443152 -1.7004767 3.04443152 0 0 Z M2 4 C3 7 3 7 3 7 Z " fill="#2157E0" transform="translate(83,85)"/>
<path d="M0 0 C0.33 0 0.66 0 1 0 C1 1.98 1 3.96 1 6 C1.66 6 2.32 6 3 6 C3.33 4.68 3.66 3.36 4 2 C4.37125 3.134375 4.7425 4.26875 5.125 5.4375 C5.86637873 7.3814131 5.86637873 7.3814131 7 9 C10.08369887 10.05749557 10.08369887 10.05749557 13 10 C13 10.33 13 10.66 13 11 C10.69 11 8.38 11 6 11 C5.67 11.66 5.34 12.32 5 13 C4.67 12.01 4.34 11.02 4 10 C2.68 10 1.36 10 0 10 C0 6.7 0 3.4 0 0 Z " fill="#0193DD" transform="translate(49,72)"/>
<path d="M0 0 C-0.17625835 2.37948772 -0.69719773 3.70225849 -2.40234375 5.37890625 C-3.90649092 6.62115486 -5.45129851 7.81376056 -7 9 C-7 8.34 -7 7.68 -7 7 C-7.66 6.67 -8.32 6.34 -9 6 C-8.67 5.67 -8.34 5.34 -8 5 C-8.66 4.34 -9.32 3.68 -10 3 C-4.25 1.875 -4.25 1.875 -2 3 C-2 2.34 -2 1.68 -2 1 C-4.97 1 -7.94 1 -11 1 C-6.46780033 -1.26609984 -4.82227075 -0.92735976 0 0 Z " fill="#7B12AD" transform="translate(123,72)"/>
<path d="M0 0 C0.33 0.99 0.66 1.98 1 3 C0.67 3.33 0.34 3.66 0 4 C0.66 4.66 1.32 5.32 2 6 C-0.97 7.32 -3.94 8.64 -7 10 C-7 9.34 -7 8.68 -7 8 C-7.66 8 -8.32 8 -9 8 C-8.67 7.01 -8.34 6.02 -8 5 C-5.68191636 3.96514123 -3.34824702 2.9644586 -1 2 C-0.67 1.34 -0.34 0.68 0 0 Z " fill="#672DE1" transform="translate(102,116)"/>
<path d="M0 0 C1.32 0.33 2.64 0.66 4 1 C3.01 1.495 3.01 1.495 2 2 C2 11.24 2 20.48 2 30 C1.67 30 1.34 30 1 30 C0.67 21.09 0.34 12.18 0 3 C-0.66 2.67 -1.32 2.34 -2 2 C-1.34 2 -0.68 2 0 2 C0 1.34 0 0.68 0 0 Z " fill="#2752D4" transform="translate(85,49)"/>
<path d="M0 0 C0.70125 -0.02578125 1.4025 -0.0515625 2.125 -0.078125 C2.74375 0.03015625 3.3625 0.1384375 4 0.25 C4.66 1.24 5.32 2.23 6 3.25 C4.1875 3.875 4.1875 3.875 2 4.25 C1.01 3.59 0.02 2.93 -1 2.25 C-3.97 4.725 -3.97 4.725 -7 7.25 C-6.625 4.3125 -6.625 4.3125 -6 1.25 C-3.78704384 0.14352192 -2.45327301 0.05411632 0 0 Z " fill="#731DC7" transform="translate(101,99.75)"/>
<path d="M0 0 C0.66 0.33 1.32 0.66 2 1 C2.3125 4.3125 2.3125 4.3125 2 8 C-0.5 9.9375 -0.5 9.9375 -3 11 C-3 10.34 -3 9.68 -3 9 C-4.32 8.67 -5.64 8.34 -7 8 C-5.824375 7.4121875 -5.824375 7.4121875 -4.625 6.8125 C-1.64843582 4.75725331 -1.01176437 3.40320742 0 0 Z " fill="#841BCA" transform="translate(116,106)"/>
<path d="M0 0 C2 1 2 1 4 3 C4.99 3 5.98 3 7 3 C6.34 4.32 5.68 5.64 5 7 C2.625 7.125 2.625 7.125 0 7 C-0.66 6.34 -1.32 5.68 -2 5 C-1.46428571 1.46428571 -1.46428571 1.46428571 0 0 Z " fill="#0472DC" transform="translate(59,97)"/>
<path d="M0 0 C0.66 0.66 1.32 1.32 2 2 C1.67 2.66 1.34 3.32 1 4 C-1.64860427 4.59355614 -4.29197322 4.74209269 -7 5 C-7.66 3.68 -8.32 2.36 -9 1 C-5.75778445 -0.08073852 -3.39597063 -0.21676408 0 0 Z " fill="#1469DC" transform="translate(84,47)"/>
<path d="M0 0 C1.0828125 1.2375 1.0828125 1.2375 2.1875 2.5 C4.72917366 5.24407806 4.72917366 5.24407806 7.8125 5.3125 C8.8953125 5.1578125 8.8953125 5.1578125 10 5 C10.33 5.66 10.66 6.32 11 7 C8.69 7 6.38 7 4 7 C3.67 7.66 3.34 8.32 3 9 C1.35 7.02 -0.3 5.04 -2 3 C-1.34 2.67 -0.68 2.34 0 2 C0 1.34 0 0.68 0 0 Z " fill="#8618C8" transform="translate(107,91)"/>
<path d="M0 0 C0.66 0 1.32 0 2 0 C2 4 2 8 2 12 C1.34 11.01 0.68 10.02 0 9 C0 10.65 0 12.3 0 14 C-0.99 14.495 -0.99 14.495 -2 15 C-2 10.71 -2 6.42 -2 2 C-1.34 2 -0.68 2 0 2 C0 1.34 0 0.68 0 0 Z M0 2 C0 5 0 5 0 5 Z " fill="#6C2ADE" transform="translate(95,89)"/>
<path d="M0 0 C0.66 0.33 1.32 0.66 2 1 C1.75 2.875 1.75 2.875 1 5 C-1.0625 6.25 -1.0625 6.25 -3 7 C-3.99 6.34 -4.98 5.68 -6 5 C-6 4.34 -6 3.68 -6 3 C-7.32 2.67 -8.64 2.34 -10 2 C-6.7 2 -3.4 2 0 2 C0 1.34 0 0.68 0 0 Z " fill="#8516BF" transform="translate(121,98)"/>
<path d="M0 0 C3.37885612 -0.28526928 6.63291991 -0.46087248 10 0 C12.125 2.5 12.125 2.5 13 5 C12.01 5.33 11.02 5.66 10 6 C9.34 5.01 8.68 4.02 8 3 C6.03638136 2.42251197 6.03638136 2.42251197 3.875 2.3125 C2.59625 2.209375 1.3175 2.10625 0 2 C0 1.34 0 0.68 0 0 Z " fill="#136DED" transform="translate(73,95)"/>
<path d="M0 0 C2.00720923 0.28674418 4.0085944 0.61866701 6 1 C5.67 1.66 5.34 2.32 5 3 C4.34 3 3.68 3 3 3 C3 8.61 3 14.22 3 20 C2.34 20.33 1.68 20.66 1 21 C1 14.73 1 8.46 1 2 C0.34 1.67 -0.32 1.34 -1 1 C-0.67 0.67 -0.34 0.34 0 0 Z " fill="#4F30C4" transform="translate(92,49)"/>
<path d="M0 0 C1.37478516 0.01740234 1.37478516 0.01740234 2.77734375 0.03515625 C3.69644531 0.04417969 4.61554688 0.05320312 5.5625 0.0625 C6.27277344 0.07410156 6.98304687 0.08570312 7.71484375 0.09765625 C7.71484375 0.75765625 7.71484375 1.41765625 7.71484375 2.09765625 C5.07484375 2.09765625 2.43484375 2.09765625 -0.28515625 2.09765625 C-0.61515625 3.08765625 -0.94515625 4.07765625 -1.28515625 5.09765625 C-2.27515625 5.09765625 -3.26515625 5.09765625 -4.28515625 5.09765625 C-3.16461059 0.13523977 -3.16461059 0.13523977 0 0 Z " fill="#A61AEA" transform="translate(113.28515625,72.90234375)"/>
<path d="M0 0 C0.66 0.33 1.32 0.66 2 1 C2.59355614 3.64860427 2.74209269 6.29197322 3 9 C2.01 9.33 1.02 9.66 0 10 C-0.99 7.03 -1.98 4.06 -3 1 C-2.01 0.67 -1.02 0.34 0 0 Z " fill="#A01BE0" transform="translate(119,57)"/>
<path d="M0 0 C1.66611905 -0.042721 3.33382885 -0.04063832 5 0 C6 1 6 1 6.0625 3.5625 C6.041875 4.366875 6.02125 5.17125 6 6 C3.36 5.34 0.72 4.68 -2 4 C-1.34 2.68 -0.68 1.36 0 0 Z " fill="#741CC4" transform="translate(97,106)"/>
<path d="M0 0 C0.66 0 1.32 0 2 0 C2 1.32 2 2.64 2 4 C2.66 4 3.32 4 4 4 C4 6.31 4 8.62 4 11 C3.01 10.67 2.02 10.34 1 10 C1.33 8.35 1.66 6.7 2 5 C1.01 4.67 0.02 4.34 -1 4 C-0.67 2.68 -0.34 1.36 0 0 Z " fill="#0291F2" transform="translate(76,55)"/>
<path d="M0 0 C0.33 0 0.66 0 1 0 C1 1.98 1 3.96 1 6 C1.66 6 2.32 6 3 6 C3 4.35 3 2.7 3 1 C3.33 1 3.66 1 4 1 C4.66 4.3 5.32 7.6 6 11 C5.34 11 4.68 11 4 11 C4 10.34 4 9.68 4 9 C3.01 9 2.02 9 1 9 C-0.4783226 6.04335481 -0.06032783 3.25770263 0 0 Z " fill="#0576E3" transform="translate(50,95)"/>
<path d="M0 0 C0.99 0 1.98 0 3 0 C3.33 2.64 3.66 5.28 4 8 C2.02 7.34 0.04 6.68 -2 6 C-2 5.34 -2 4.68 -2 4 C-1.34 4 -0.68 4 0 4 C0 2.68 0 1.36 0 0 Z " fill="#00A1F0" transform="translate(69,60)"/>
<path d="M0 0 C1.32 0 2.64 0 4 0 C5.125 3.75 5.125 3.75 4 6 C1.69 6 -0.62 6 -3 6 C-2.34 4.68 -1.68 3.36 -1 2 C-1 2.66 -1 3.32 -1 4 C-0.01 4 0.98 4 2 4 C2 3.01 2 2.02 2 1 C1.34 0.67 0.68 0.34 0 0 Z " fill="#A11DE6" transform="translate(111,60)"/>
<path d="M0 0 C0.33 0 0.66 0 1 0 C1 1.65 1 3.3 1 5 C0.34 5 -0.32 5 -1 5 C-1 5.99 -1 6.98 -1 8 C-1.99 7.67 -2.98 7.34 -4 7 C-4.33 5.35 -4.66 3.7 -5 2 C-4.34 1.67 -3.68 1.34 -3 1 C-3 1.66 -3 2.32 -3 3 C-2.01 3 -1.02 3 0 3 C0 2.01 0 1.02 0 0 Z " fill="#8225E5" transform="translate(101,108)"/>
<path d="M0 0 C0 0.99 0 1.98 0 3 C-1.32 3 -2.64 3 -4 3 C-4.33 3.66 -4.66 4.32 -5 5 C-5 4.34 -5 3.68 -5 3 C-6.65 3 -8.3 3 -10 3 C-10 2.34 -10 1.68 -10 1 C-2.25 0 -2.25 0 0 0 Z " fill="#A31CEE" transform="translate(121,97)"/>
<path d="M0 0 C0.99 0.33 1.98 0.66 3 1 C3.29296875 7.0546875 3.29296875 7.0546875 3 9 C2.01 9.66 1.02 10.32 0 11 C0 7.37 0 3.74 0 0 Z " fill="#2763F9" transform="translate(84,78)"/>
<path d="M0 0 C1.65 0 3.3 0 5 0 C5 2.64 5 5.28 5 8 C5.66 8 6.32 8 7 8 C6.67 9.32 6.34 10.64 6 12 C5.34 12 4.68 12 4 12 C4 8.37 4 4.74 4 1 C2.68 0.67 1.36 0.34 0 0 Z " fill="#9B23F4" transform="translate(98,74)"/>
<path d="M0 0 C0.66 0 1.32 0 2 0 C2 3.3 2 6.6 2 10 C1.01 10 0.02 10 -1 10 C-0.67 6.7 -0.34 3.4 0 0 Z " fill="#A91CEE" transform="translate(127,94)"/>
<path d="M0 0 C1.32 1.32 2.64 2.64 4 4 C3.34 4 2.68 4 2 4 C2.33 6.31 2.66 8.62 3 11 C2.731875 10.443125 2.46375 9.88625 2.1875 9.3125 C0.89877353 6.80287477 -0.52926478 4.40665764 -2 2 C-1.34 2 -0.68 2 0 2 C0 1.34 0 0.68 0 0 Z " fill="#1366DD" transform="translate(82,74)"/>
<path d="M0 0 C0 2.62113708 -0.31292445 4.50935112 -1 7 C-3.64 7 -6.28 7 -9 7 C-9 6.67 -9 6.34 -9 6 C-7.35 6 -5.7 6 -4 6 C-3.71125 5.38125 -3.4225 4.7625 -3.125 4.125 C-2 2 -2 2 0 0 Z " fill="#7217B9" transform="translate(105,66)"/>
<path d="M0 0 C2.625 0.9375 2.625 0.9375 5 2 C4.67 3.98 4.34 5.96 4 8 C3.67 8 3.34 8 3 8 C3 6.02 3 4.04 3 2 C2.67 2.66 2.34 3.32 2 4 C1.34 4 0.68 4 0 4 C0 3.34 0 2.68 0 2 C-0.66 1.67 -1.32 1.34 -2 1 C-1.34 0.67 -0.68 0.34 0 0 Z " fill="#7720CB" transform="translate(100,53)"/>
<path d="M0 0 C0.66 0 1.32 0 2 0 C2 2.31 2 4.62 2 7 C-0.97 6.505 -0.97 6.505 -4 6 C-2.68 5.67 -1.36 5.34 0 5 C0 3.35 0 1.7 0 0 Z " fill="#9222ED" transform="translate(102,93)"/>
<path d="M0 0 C0.66 0.33 1.32 0.66 2 1 C1.01 2.32 0.02 3.64 -1 5 C-0.34 5 0.32 5 1 5 C1.33 4.34 1.66 3.68 2 3 C2 3.99 2 4.98 2 6 C2.66 6.33 3.32 6.66 4 7 C3.01 7.33 2.02 7.66 1 8 C0.01 7.34 -0.98 6.68 -2 6 C-1.125 1.125 -1.125 1.125 0 0 Z " fill="#0385CD" transform="translate(57,72)"/>
<path d="M0 0 C2.31 0 4.62 0 7 0 C6.67 0.99 6.34 1.98 6 3 C4.02 3 2.04 3 0 3 C0 2.01 0 1.02 0 0 Z " fill="#A41CE8" transform="translate(110,69)"/>
<path d="M0 0 C0.99 0 1.98 0 3 0 C2.6875 2.375 2.6875 2.375 2 5 C1.01 5.66 0.02 6.32 -1 7 C-1.33 6.34 -1.66 5.68 -2 5 C-1.0625 2.375 -1.0625 2.375 0 0 Z " fill="#7221CA" transform="translate(100,61)"/>
<path d="M0 0 C0 1.98 0 3.96 0 6 C-1.98 4.68 -3.96 3.36 -6 2 C-2.25 0 -2.25 0 0 0 Z " fill="#353ED7" transform="translate(87,123)"/>
<path d="M0 0 C0.33 0.99 0.66 1.98 1 3 C0.67 3.33 0.34 3.66 0 4 C0.66 4.66 1.32 5.32 2 6 C0.1875 7.0625 0.1875 7.0625 -2 8 C-2.99 7.67 -3.98 7.34 -5 7 C-4.34 7 -3.68 7 -3 7 C-2.690625 6.21625 -2.38125 5.4325 -2.0625 4.625 C-1 2 -1 2 0 0 Z " fill="#6722C4" transform="translate(102,116)"/>
<path d="M0 0 C2.475 0.495 2.475 0.495 5 1 C5.33 2.65 5.66 4.3 6 6 C4.35 5.67 2.7 5.34 1 5 C1.33 4.01 1.66 3.02 2 2 C1.34 1.34 0.68 0.68 0 0 Z " fill="#8B16C6" transform="translate(119,87)"/>
<path d="M0 0 C1.0625 1.8125 1.0625 1.8125 2 4 C1.67 4.99 1.34 5.98 1 7 C1 6.34 1 5.68 1 5 C-1.31 5 -3.62 5 -6 5 C-5.38125 4.731875 -4.7625 4.46375 -4.125 4.1875 C-1.7004767 3.04443152 -1.7004767 3.04443152 0 0 Z " fill="#144CB5" transform="translate(83,85)"/>
<path d="M0 0 C0.33 0.99 0.66 1.98 1 3 C1.99 3 2.98 3 4 3 C3.67 3.99 3.34 4.98 3 6 C1.68 6 0.36 6 -1 6 C-1.625 4.125 -1.625 4.125 -2 2 C-1.34 1.34 -0.68 0.68 0 0 Z " fill="#9416CC" transform="translate(126,79)"/>
<path d="M0 0 C0.98120464 3.05263664 0.98120464 4.94736336 0 8 C-0.66 8 -1.32 8 -2 8 C-2.125 5.125 -2.125 5.125 -2 2 C-1.34 1.34 -0.68 0.68 0 0 Z " fill="#00AFF9" transform="translate(52,70)"/>
<path d="M0 0 C2.625 0.9375 2.625 0.9375 5 2 C5 3.65 5 5.3 5 7 C4.01 5.68 3.02 4.36 2 3 C1.01 3.495 1.01 3.495 0 4 C0 3.34 0 2.68 0 2 C-0.66 1.67 -1.32 1.34 -2 1 C-1.34 0.67 -0.68 0.34 0 0 Z " fill="#0A6CCF" transform="translate(78,53)"/>
<path d="M0 0 C1.134375 0.020625 2.26875 0.04125 3.4375 0.0625 C3.7675 0.7225 4.0975 1.3825 4.4375 2.0625 C1.0625 2.6875 1.0625 2.6875 -2.5625 3.0625 C-3.2225 2.4025 -3.8825 1.7425 -4.5625 1.0625 C-3.5625 0.0625 -3.5625 0.0625 0 0 Z " fill="#7635EF" transform="translate(97.5625,47.9375)"/>
</svg>
